<svg xmlns="http://www.w3.org/2000/svg" viewBox="0 0 623.37 159.49"><defs><style>.cls-1,.cls-2{fill:#fff;}.cls-2{fill-rule:evenodd;}</style></defs><g id="Layer_2" data-name="Layer 2"><g id="Layer_1-2" data-name="Layer 1"><path class="cls-1" d="M197.31,91.33H180.37V88.64c2.2,0,3.84-.62,3.79-1.76V8.24c.05-1.14-1.59-1.72-3.79-1.76V3.78h33.88v2.7c-2.2,0-3.84.62-3.79,1.76V86.88c-.09,1.12,1.59,1.72,3.79,1.76v2.69Z"></path><path class="cls-1" d="M440.5,65l17.37,21.88c.05,1.14-1.59,1.72-3.79,1.76v2.69h39.16V88.64a4.2,4.2,0,0,1-3.79-1.76l-33.2-39.3L486.37,8.24c.45-.85,1.59-1.72,3.78-1.76V3.78H451v2.7c2.19,0,3.84.62,3.78,1.76L440.42,27.46,426.12,8.24c-.05-1.14,1.59-1.72,3.79-1.76V3.78H390.75v2.7a4.23,4.23,0,0,1,3.79,1.76l30.11,39.34-33.2,39.3c-.84.63-1.59,1.72-3.78,1.76v2.69h39.15V88.64c-2.19,0-3.83-.62-3.78-1.76Z"></path><path class="cls-1" d="M286.42,70.85l53.49.08c1.13,0,1.72-1.6,1.76-3.79h2.7v28h-2.7c0-2.19-.63-3.84-1.76-3.79H257.57V88.64c2.19,0,3.8-.64,3.8-1.76V8.24c0-1.14-1.61-1.72-3.8-1.76V3.78h82.32c1.14.06,1.73-1.59,1.76-3.78h2.72V28h-2.7c0-2.19-.62-3.84-1.76-3.78H286.37V37.49h33.42c1.14,0,1.73-1.86,1.76-4.06h2.7V59.81h-2.7c0-2.2-.62-4.19-1.76-4.13H286.37V70.85Z"></path><path class="cls-1" d="M565.37,70.87l53.49.09c1.14,0,1.73-1.6,1.76-3.79h2.75v28h-2.7c0-2.2-.62-3.84-1.76-3.79H536.57V88.67c2.2,0,3.84-.63,3.79-1.77V8.27c0-1.14-1.59-1.73-3.79-1.76V3.81h82.3c1.13.06,1.72-1.59,1.76-3.79h2.74V28h-2.69c0-2.2-.63-3.84-1.76-3.79H565.31V37.52h33.43c1.13,0,1.72-1.87,1.76-4.06h2.7V59.84h-2.7c0-2.2-.63-4.19-1.76-4.14H565.37Z"></path><path class="cls-1" d="M238.11,150.53a9.12,9.12,0,0,1-7.21-2.94,11.6,11.6,0,0,1-2.62-8V123.67c0-.22-.1-.33-.28-.33h-1a7.47,7.47,0,0,0-.95.12,1.27,1.27,0,0,1-1-.35,1.25,1.25,0,0,1-.43-1,1.34,1.34,0,0,1,.43-1,1.15,1.15,0,0,1,1-.33c.78.09,1.47.14,2.06.19s1.15.06,1.68.06a16.77,16.77,0,0,0,1.7-.06c.61-.07,1.28-.1,2.06-.19a1.08,1.08,0,0,1,1,.35,1.36,1.36,0,0,1,.4,1,1.29,1.29,0,0,1-.4,1,1.2,1.2,0,0,1-1,.37c-.36,0-.72-.1-1.09-.12l-1.19-.09a.34.34,0,0,0-.37.28v16.05a9.7,9.7,0,0,0,.11,1.63,11.63,11.63,0,0,0,.48,2.18,8.26,8.26,0,0,0,1.15,2.3,5.81,5.81,0,0,0,2.17,1.73,7.7,7.7,0,0,0,3.38.66,7.5,7.5,0,0,0,3.43-.68,6.09,6.09,0,0,0,2.06-1.71,7.8,7.8,0,0,0,1.15-2.24,10.61,10.61,0,0,0,.46-2.17c.06-.69.1-1.22.1-1.59v-16a.32.32,0,0,0-.36-.37l-1.19.08a7.12,7.12,0,0,0-1.09.12,1.19,1.19,0,0,1-.95-.37,1.27,1.27,0,0,1-.42-.95,1.34,1.34,0,0,1,.42-1,1.07,1.07,0,0,1,.95-.35q1.22.12,2.1.18c.6,0,1.09.07,1.65.07a14.3,14.3,0,0,0,1.7-.07c.61-.06,1.27-.1,2-.18a1.15,1.15,0,0,1,1,.32,1.39,1.39,0,0,1,.42,1,1.27,1.27,0,0,1-.42,1,1.31,1.31,0,0,1-1,.34,6.7,6.7,0,0,0-.9-.1h-1.07c-.18,0-.28.1-.28.32v15.91a11.57,11.57,0,0,1-2.64,8A9.17,9.17,0,0,1,238.11,150.53Z"></path><path class="cls-1" d="M264.26,150.5a1.1,1.1,0,0,1-1.21-1.13,1.25,1.25,0,0,1,.36-.88.92.92,0,0,1,.85-.29l1.78.12h.07c.2,0,.29-.11.29-.32V132.21q0-.41-.36-.33l-1.82.12a1.16,1.16,0,0,1-1.24-1.17,1.07,1.07,0,0,1,.38-.88.89.89,0,0,1,.83-.28l1.25.1,1.33.09a2.25,2.25,0,0,1,1.54.69,2.11,2.11,0,0,1,.62,1.54v1.52c0,.16.06.26.15.28a.31.31,0,0,0,.3-.12q4.37-4.1,8-4.1,5.16,0,5.16,6.92V148c0,.27.13.38.4.32l1.69-.12a.92.92,0,0,1,.85.29,1.25,1.25,0,0,1,.36.88,1.09,1.09,0,0,1-1.09,1.09h-.12c-.86-.09-1.53-.15-2-.17s-.93,0-1.36,0a10.7,10.7,0,0,0-1.46.07l-1.92.14a1.1,1.1,0,0,1-1.21-1v-.13a1.17,1.17,0,0,1,.36-.88.87.87,0,0,1,.85-.28l1.73.12h.07c.19,0,.29-.11.29-.33V136.55a5.48,5.48,0,0,0-.72-3.14,2.68,2.68,0,0,0-2.34-1q-3.53,0-7.78,3.91a.75.75,0,0,0-.21.49V148c0,.23.12.34.38.32l1.73-.12a.92.92,0,0,1,.85.29,1.25,1.25,0,0,1,.36.88A1.1,1.1,0,0,1,271,150.5c-.86-.09-1.54-.14-2-.16s-.95,0-1.37,0a12.21,12.21,0,0,0-1.45.06Z"></path><path class="cls-1" d="M301.54,150.53a1.31,1.31,0,0,1-1.42-1.19v-.14a1.31,1.31,0,0,1,.42-1,1.1,1.1,0,0,1,1-.32l.9.08a6.67,6.67,0,0,1,.95.12c.32.06.4-.12.4-.37V132.47a.31.31,0,0,0-.27-.36.14.14,0,0,0-.09,0l-1,.06a5.63,5.63,0,0,0-.92.1,1.31,1.31,0,0,1-1-.34,1.38,1.38,0,0,1,0-1.94,1.34,1.34,0,0,1,.92-.38h-.13l1.72.17c.63,0,1,.07,1.19.07a2.18,2.18,0,0,1,2.17,2.18V147.7c0,.25.13.37.41.37s.63-.09,1-.12l.89-.09a1.13,1.13,0,0,1,1,.33,1.4,1.4,0,0,1,.4,1,1.34,1.34,0,0,1-.4,1,1.21,1.21,0,0,1-1,.34l-1.75-.15q-1-.09-1.8-.09a12.33,12.33,0,0,0-1.79.09Zm3.53-24.85a2.17,2.17,0,0,1-2.17-2.17,2.13,2.13,0,0,1,.65-1.56,2.07,2.07,0,0,1,1.52-.62,2.12,2.12,0,0,1,2.18,2.06v.11a2.17,2.17,0,0,1-2.18,2.18Z"></path><path class="cls-1" d="M335.1,150.53a1.42,1.42,0,0,1-1.36-.88l-7.89-17.49a.47.47,0,0,0-.45-.24l-1.25.08a1.06,1.06,0,0,1-.88-.3,1.13,1.13,0,0,1-.36-.87,1.06,1.06,0,0,1,.36-.86,1,1,0,0,1,.88-.27l1.84.13h3.08l1.81-.13a1.08,1.08,0,0,1,.89.27,1.13,1.13,0,0,1,.36.86,1.15,1.15,0,0,1-.33.85,1.09,1.09,0,0,1-.8.32,7.46,7.46,0,0,1-.95-.06l-1.09-.09c-.32,0-.41.14-.28.43l6.25,14.1c.07.17.16.24.24.24a.27.27,0,0,0,.24-.24l5.92-14.15a.37.37,0,0,0,0-.21c0-.13-.08-.2-.24-.2H340l-1,.12a1.09,1.09,0,0,1-.88-.29,1.08,1.08,0,0,1-.37-.87,1,1,0,0,1,.37-.86,1,1,0,0,1,.88-.27l1.83.13h3.07l1.83-.13a1,1,0,0,1,.88.27,1.2,1.2,0,0,1,0,1.73,1.09,1.09,0,0,1-.88.29l-1.25-.07a.43.43,0,0,0-.44.24l-7.7,17.53A1.24,1.24,0,0,1,335.1,150.53Z"></path><path class="cls-1" d="M370.91,150.5a9.53,9.53,0,0,1-5.12-1.42,10.41,10.41,0,0,1-3.67-3.76,10.08,10.08,0,0,1-1.36-5.22,10.83,10.83,0,0,1,1.28-5.29,10,10,0,0,1,3.51-3.76,9.81,9.81,0,0,1,11.52,1.09,10.83,10.83,0,0,1,3,6.89,1.88,1.88,0,0,1-.54,1.49,2,2,0,0,1-1.52.65H363.61c-.29,0-.4.13-.33.4a7.83,7.83,0,0,0,4.12,5.68,7.34,7.34,0,0,0,3.46.84,6.85,6.85,0,0,0,3-.66,7.61,7.61,0,0,0,2.52-1.87,1.62,1.62,0,0,1,1.09-.53,1.41,1.41,0,0,1,.72.24,1.22,1.22,0,0,1,.53,1,1,1,0,0,1-.28.73,10.1,10.1,0,0,1-3.39,2.58A9.85,9.85,0,0,1,370.91,150.5Zm-7.3-11.73H377.1c.31,0,.4-.15.33-.44a8,8,0,0,0-2.26-4.8,6.64,6.64,0,0,0-4.71-1.65,6.94,6.94,0,0,0-4.84,1.75,7.76,7.76,0,0,0-2.37,4.74v.07A.33.33,0,0,0,363.61,138.77Z"></path><path class="cls-1" d="M396.07,150.53a1.07,1.07,0,0,1-.87-.29,1.06,1.06,0,0,1-.38-.87,1.17,1.17,0,0,1,.37-.91,1,1,0,0,1,.88-.26l1.89.12H398c.18,0,.28-.11.28-.32V132.52a.32.32,0,0,0-.26-.36H398a4.57,4.57,0,0,0-1,.07,5.63,5.63,0,0,0-.92.1,1.38,1.38,0,0,1-1-.34,1.31,1.31,0,0,1-.1-1.86.47.47,0,0,1,.1-.1,1.13,1.13,0,0,1,1-.33l1.3.13h2.25a1.17,1.17,0,0,1,.9.37,1.22,1.22,0,0,1,.34.88v3.27c0,.22.05.33.16.33a.34.34,0,0,0,.28-.21,9.55,9.55,0,0,1,7.09-5h1a3.65,3.65,0,0,1,2.18.62,2.09,2.09,0,0,1,.85,1.8,1.91,1.91,0,0,1-.58,1.39,2.06,2.06,0,0,1-1.51.58,1.77,1.77,0,0,1-1.23-.42,2.18,2.18,0,0,1-.62-.86.42.42,0,0,0-.4-.33,4.66,4.66,0,0,0-3,1.09,10.89,10.89,0,0,0-2.46,2.82,17.73,17.73,0,0,0-1.71,3.6,1,1,0,0,0-.08.45v7.85c0,.24.12.35.37.33l1.92-.12a1,1,0,0,1,.9.26,1.21,1.21,0,0,1,.36.9,1.18,1.18,0,0,1-1.26,1.17l-2-.18c-.53,0-1-.06-1.51-.06a14.9,14.9,0,0,0-1.61.06C397.43,150.49,396.85,150.46,396.07,150.53Z"></path><path class="cls-1" d="M436.59,150.5a13.74,13.74,0,0,1-3.06-.35,12.38,12.38,0,0,1-2.82-1,6.66,6.66,0,0,1-2.07-1.5,2.86,2.86,0,0,1-.79-1.94,2,2,0,0,1,.61-1.49,2,2,0,0,1,1.45-.6,1.89,1.89,0,0,1,1.49.64,2.11,2.11,0,0,1,.56,1.45,2.28,2.28,0,0,1-.12.73.38.38,0,0,0,0,.15.37.37,0,0,0,.2.33,20.28,20.28,0,0,0,2.1.76,7.85,7.85,0,0,0,2.5.37,8.94,8.94,0,0,0,4.45-1,2.88,2.88,0,0,0,1.71-2.58,2.1,2.1,0,0,0-1-1.83,9,9,0,0,0-2.54-1.09c-1-.28-2.18-.55-3.27-.8a24.43,24.43,0,0,1-3.26-1,6.83,6.83,0,0,1-2.55-1.61,3.84,3.84,0,0,1-1-2.76,4.85,4.85,0,0,1,2.18-4.17,9.79,9.79,0,0,1,5.79-1.56,11.57,11.57,0,0,1,3.65.53,6.53,6.53,0,0,1,2.51,1.39,2.62,2.62,0,0,1,.93,2v.21a1,1,0,0,1,0,.24,1.86,1.86,0,0,1-.66,1.21,2.14,2.14,0,0,1-1.35.48,2,2,0,0,1-2.06-2v0a2,2,0,0,1,.12-.68V133a.36.36,0,0,0-.25-.35,7.65,7.65,0,0,0-2.91-.52,7.53,7.53,0,0,0-3.89.92,2.78,2.78,0,0,0-1.54,2.46,1.86,1.86,0,0,0,1,1.69,8.88,8.88,0,0,0,2.53,1c1,.25,2.13.51,3.27.76a20.62,20.62,0,0,1,3.27,1,6.66,6.66,0,0,1,2.53,1.75,4.31,4.31,0,0,1,1,3,4.86,4.86,0,0,1-2.37,4.24A11.16,11.16,0,0,1,436.59,150.5Z"></path><path class="cls-1" d="M466.14,150.53a1.3,1.3,0,0,1-1.41-1.19.66.66,0,0,1,0-.14,1.32,1.32,0,0,1,.43-1,1.07,1.07,0,0,1,1-.32l.9.08c.32,0,.64.07.95.12s.4-.12.4-.37V132.47a.3.3,0,0,0-.26-.36.17.17,0,0,0-.1,0,5.32,5.32,0,0,0-1,.06,7,7,0,0,0-.92.1,1.3,1.3,0,0,1-1-.34,1.28,1.28,0,0,1-.43-1,1.26,1.26,0,0,1,.39-.95,1.3,1.3,0,0,1,.91-.38h-.12l1.71.17c.63,0,1,.07,1.18.07A2.18,2.18,0,0,1,471,132V147.7c0,.25.13.37.41.37s.64-.1,1-.12l.89-.09a1.14,1.14,0,0,1,1,.33,1.34,1.34,0,0,1,.4,1,1.26,1.26,0,0,1-.4,1,1.22,1.22,0,0,1-1,.34l-1.76-.15c-.63-.06-1.23-.09-1.78-.09a12.54,12.54,0,0,0-1.8.09Zm3.55-24.85a2.09,2.09,0,0,1-1.54-.65,2.18,2.18,0,0,1,0-3.08h0a2.18,2.18,0,0,1,3.08,3.08A2,2,0,0,1,469.69,125.68Z"></path><path class="cls-1" d="M500.76,150.5a9.28,9.28,0,0,1-7.35-3.33,10.38,10.38,0,0,1-1.91-3.36,10.89,10.89,0,0,1-.65-3.71,12.68,12.68,0,0,1,.58-3.67,11.22,11.22,0,0,1,1.75-3.36,8.74,8.74,0,0,1,3-2.43,9,9,0,0,1,4.21-.94,7,7,0,0,1,3.48.89,9.41,9.41,0,0,1,2.68,2.26.31.31,0,0,0,.24.16c.13,0,.21-.11.21-.33v-9.55c0-.26-.12-.37-.37-.31l-1.9.12a1.1,1.1,0,0,1-1.24-1.13,1.24,1.24,0,0,1,.36-.91,1,1,0,0,1,.88-.26l1.28.1,1.35.1a2.18,2.18,0,0,1,1.55.67,2,2,0,0,1,.63,1.5v24.85c0,.24.13.36.4.36a5.62,5.62,0,0,0,1-.15,3.35,3.35,0,0,1,.89-.12,1.13,1.13,0,0,1,.86.34,1.31,1.31,0,0,1-.07,1.85,1.16,1.16,0,0,1-1,.31,14.61,14.61,0,0,0-2.46-.29A2.17,2.17,0,0,1,507,148c0-.13,0-.19-.12-.19a.53.53,0,0,0-.33.19,8.74,8.74,0,0,1-2.63,1.84A7.46,7.46,0,0,1,500.76,150.5Zm0-2.46a7.11,7.11,0,0,0,6.09-2.9.7.7,0,0,0,.16-.44v-9.2a.67.67,0,0,0-.16-.43,9.21,9.21,0,0,0-2.78-2.18,7.5,7.5,0,0,0-3.35-.79,6.69,6.69,0,0,0-3.7,1,7.21,7.21,0,0,0-2.54,2.8,9.39,9.39,0,0,0,0,8.18,7.4,7.4,0,0,0,2.58,2.86,6.69,6.69,0,0,0,3.66,1.08Z"></path><path class="cls-1" d="M532.06,150.5a6.11,6.11,0,0,1-4.23-1.55,4.91,4.91,0,0,1-1.68-3.84,5.63,5.63,0,0,1,2-4.62,7.75,7.75,0,0,1,5.1-1.63,15.45,15.45,0,0,1,5.8,1.29.34.34,0,0,0,.2,0c.16,0,.25-.08.25-.28v-2A6,6,0,0,0,538,133.5a5,5,0,0,0-3.74-1.52,7.7,7.7,0,0,0-3.13.72.37.37,0,0,0-.17.49,2,2,0,0,1-.42,2.17,2.1,2.1,0,0,1-3-.05,2.4,2.4,0,0,1-.55-1.56,2.58,2.58,0,0,1,.64-1.69,7,7,0,0,1,2.64-1.87,8.65,8.65,0,0,1,3.4-.66,7.51,7.51,0,0,1,8.3,6.64,7.22,7.22,0,0,1,0,1.61v10.08a.32.32,0,0,0,.27.36h.09a4.27,4.27,0,0,0,1-.17,3.28,3.28,0,0,1,.93-.14,1.13,1.13,0,0,1,.87.36,1.3,1.3,0,0,1,.34.92,1.25,1.25,0,0,1-.45,1,1.23,1.23,0,0,1-1,.31,10,10,0,0,0-1.09-.21c-.4,0-.81-.09-1.25-.12a2.11,2.11,0,0,1-1.55-.64,2.2,2.2,0,0,1-.62-1.54h0a.89.89,0,0,0-.4.2,10.78,10.78,0,0,1-3,1.73A11.23,11.23,0,0,1,532.06,150.5Zm0-2.42a11.26,11.26,0,0,0,4-.78,10.19,10.19,0,0,0,3.2-2.36.64.64,0,0,0,.16-.45V143a.41.41,0,0,0-.25-.4,15.65,15.65,0,0,0-2.27-1,11.33,11.33,0,0,0-3.56-.48,5.58,5.58,0,0,0-3.57,1.09,3.48,3.48,0,0,0-1.31,2.91,2.61,2.61,0,0,0,1,2.11A4,4,0,0,0,532.06,148.08Z"></path><path class="cls-1" d="M567.72,150.5a9.29,9.29,0,0,1-7.35-3.33,10.6,10.6,0,0,1-1.92-3.36,11.66,11.66,0,0,1-.64-3.71,12.36,12.36,0,0,1,.59-3.67,10.57,10.57,0,0,1,1.75-3.36,8.69,8.69,0,0,1,3-2.43,9,9,0,0,1,4.21-.94,6.94,6.94,0,0,1,3.48.89,9.41,9.41,0,0,1,2.68,2.26.34.34,0,0,0,.25.16c.09,0,.2-.11.2-.33v-9.55c0-.26-.12-.37-.36-.31l-1.9.12a1.21,1.21,0,0,1-.89-.28,1.11,1.11,0,0,1-.36-.85,1.24,1.24,0,0,1,.36-.91,1,1,0,0,1,.89-.26l1.27.1,1.35.1a2.22,2.22,0,0,1,1.55.67,2.09,2.09,0,0,1,.63,1.5v24.85c0,.24.13.36.4.36a5.73,5.73,0,0,0,1-.15,3.33,3.33,0,0,1,.88-.12,1.17,1.17,0,0,1,.87.34,1.25,1.25,0,0,1,.34.9,1.22,1.22,0,0,1-.42.95,1.17,1.17,0,0,1-1,.31,14.5,14.5,0,0,0-2.45-.29,2.17,2.17,0,0,1-2.18-2.18c0-.13,0-.19-.12-.19a.69.69,0,0,0-.33.19,8.74,8.74,0,0,1-2.63,1.84A7.54,7.54,0,0,1,567.72,150.5Zm0-2.46a7.12,7.12,0,0,0,6.08-2.9.7.7,0,0,0,.16-.44v-9.2a.67.67,0,0,0-.16-.43,9.21,9.21,0,0,0-2.78-2.18,7.46,7.46,0,0,0-3.34-.79,6.8,6.8,0,0,0-3.72,1,7.26,7.26,0,0,0-2.53,2.8,8.83,8.83,0,0,0-.93,4.1,8.62,8.62,0,0,0,1,4.08A7.4,7.4,0,0,0,564,147a6.69,6.69,0,0,0,3.66,1.08Z"></path><path class="cls-2" d="M120.52,79.68v20.68c.15,24.75-25.85,41.86-49.54,42a73.39,73.39,0,0,1-19.26-2.41v-61a94.5,94.5,0,0,1,17.51,3.53,92.4,92.4,0,0,0,26.22,2.61,81.87,81.87,0,0,0,25.07-5.37Zm-41.9-.41V26.11h41.9V74.4A77.08,77.08,0,0,1,95.2,80.15a81.83,81.83,0,0,1-16.58-.88ZM70.7,77.74V26.11h5.48V78.87q-2.75-.5-5.48-1.13Zm-9.12-2V26.11h6V77c-2-.45-4-.89-6-1.29ZM51.72,26.11h7.55V75.28c-2.45-.45-5-.84-7.55-1.16v-48ZM49.41,78.68v60.56c-17.91-5.58-30.84-18.71-31.07-38.88V79.76q3.24-.62,6.62-1h0q3.74-.4,7.43-.52a141,141,0,0,1,17,.43Zm-6.93-5.33V26.11h6.93V73.85q-3.34-.34-6.93-.5Zm-8.65-.06V26.11H40V73.27c-2,0-4.07,0-6.21,0Zm-2.3.09q-2.8.11-5.55.36V26.11h5.55V73.38ZM18.34,26.11h4.54v48c-1.51.19-3,.43-4.54.71V26.11Zm8.45,60.77.54,1.71,1.84,0-1.47,1,.56,1.74L26.8,90.34,25.31,91.4l.57-1.72-1.47-1.07h1.8l.58-1.73Zm12.46-1.8.55,1.72,1.83,0-1.47,1.05.56,1.74-1.45-1.06-1.49,1.06.56-1.72-1.47-1.07h1.8l.58-1.74Zm38.52,6.51.54,1.71,1.84,0-1.47,1.05.56,1.74-1.46-1.06-1.49,1.06.57-1.72-1.48-1.07h1.81l.58-1.73Zm-16.47-4,.54,1.72,1.84,0-1.47,1,.56,1.74-1.46-1.07-1.49,1.07.57-1.72-1.48-1.07h1.81l.58-1.74Zm31.57,3.89.55,1.72,1.83,0-1.46,1L94.34,96,92.89,95,91.4,96,92,94.32l-1.47-1.07h1.8l.58-1.74Zm18.2-2.66.55,1.71,1.83,0-1.47,1,.56,1.75-1.45-1.07-1.49,1.07.56-1.73-1.47-1.07h1.8l.58-1.74Z"></path><path class="cls-1" d="M1.84,3.78h140v99h0c0,.38,0,.77,0,1.14-.31,16.33-9.23,30.11-22.12,39.87a79.89,79.89,0,0,1-45.53,15.7l-1.15,0H71.87a110.35,110.35,0,0,1-15.76-1.22,91.78,91.78,0,0,1-14.69-3.47C17.44,147,.33,129.39,0,102.78v-99ZM138.1,7.47H3.69v95.29h0C4,127.54,20.05,143.93,42.56,151.3a89.29,89.29,0,0,0,14.1,3.33,105.62,105.62,0,0,0,15.22,1.18h2.17a76.13,76.13,0,0,0,43.39-15c12.05-9.12,20.38-21.91,20.66-37,0-.36,0-.72,0-1.08h0V7.47Z"></path><polygon class="cls-2" points="69.32 12.17 70.46 15.75 74.27 15.77 71.22 17.96 72.38 21.59 69.35 19.36 66.26 21.59 67.44 18.02 64.37 15.77 68.12 15.78 69.32 12.17 69.32 12.17"></polygon></g></g></svg>